<?xml version="1.0" encoding="UTF-8" standalone="no"?>
<!DOCTYPE svg PUBLIC "-//W3C//DTD SVG 1.1//EN" "http://www.w3.org/Graphics/SVG/1.1/DTD/svg11.dtd">
<svg width="100%" height="100%" viewBox="0 0 302 297" version="1.1" xmlns="http://www.w3.org/2000/svg" xmlns:xlink="http://www.w3.org/1999/xlink" xml:space="preserve" xmlns:serif="http://www.serif.com/" style="fill-rule:evenodd;clip-rule:evenodd;stroke-linejoin:round;stroke-miterlimit:2;">
    <g transform="matrix(1,0,0,1,-203.769,-60.5005)">
        <g transform="matrix(6.54572,0,0,6.85423,-2914.69,-1550.49)">
            <path d="M522.508,245.845C522.508,239.879 517.74,235.035 511.868,235.035L487.051,235.035C481.179,235.035 476.412,239.879 476.412,245.845L476.412,267.466C476.412,273.432 481.179,278.276 487.051,278.276L511.868,278.276C517.74,278.276 522.508,273.432 522.508,267.466L522.508,245.845Z" style="fill:rgb(2,36,74);"/>
        </g>
        <g transform="matrix(0.453009,0,0,0.418013,222.117,107.27)">
            <path d="M231.312,152.786C222.607,134.646 215.549,129.714 200.009,129.161L71.272,129.161C57.059,129.161 38.848,146.051 49.883,166.921L114.541,289.266C121.473,301.917 126.785,305.404 138.914,305.761L278.277,305.761C293.112,305.473 302.229,286.167 294.671,272.14L231.312,152.786Z" style="fill:url(#_Linear1);"/>
        </g>
        <g transform="matrix(0.453009,0,0,0.418013,242.117,107.27)">
            <path d="M231.312,152.786C222.607,134.646 215.549,129.714 200.009,129.161L71.272,129.161C57.059,129.161 38.848,146.051 49.883,166.921L114.541,289.266C121.473,301.917 126.785,305.404 138.914,305.761L278.277,305.761C293.112,305.473 302.229,286.167 294.671,272.14L231.312,152.786Z" style="fill:url(#_Linear2);"/>
        </g>
        <g transform="matrix(0.453009,0,0,0.418013,262.117,107.27)">
            <path d="M231.312,152.786C222.607,134.646 215.549,129.714 200.009,129.161L71.272,129.161C57.059,129.161 38.848,146.051 49.883,166.921L114.541,289.266C121.473,301.917 126.785,305.404 138.914,305.761L278.277,305.761C293.112,305.473 302.229,286.167 294.671,272.14L231.312,152.786Z" style="fill:url(#_Linear3);"/>
        </g>
        <g transform="matrix(-0.226505,0.392318,-0.36201,-0.209007,509.407,142.08)">
            <path d="M231.312,152.786C222.607,134.646 215.549,129.714 200.009,129.161L71.272,129.161C57.059,129.161 38.848,146.051 49.883,166.921L114.541,289.266C121.473,301.917 126.785,305.404 138.914,305.761L278.277,305.761C293.112,305.473 302.229,286.167 294.671,272.14L231.312,152.786Z" style="fill:url(#_Linear4);"/>
        </g>
        <g transform="matrix(-0.226505,0.392318,-0.36201,-0.209007,499.407,159.4)">
            <path d="M231.312,152.786C222.607,134.646 215.549,129.714 200.009,129.161L71.272,129.161C57.059,129.161 38.848,146.051 49.883,166.921L114.541,289.266C121.473,301.917 126.785,305.404 138.914,305.761L278.277,305.761C293.112,305.473 302.229,286.167 294.671,272.14L231.312,152.786Z" style="fill:url(#_Linear5);"/>
        </g>
        <g transform="matrix(-0.226505,-0.392318,0.36201,-0.209007,336.385,373.115)">
            <path d="M231.312,152.786C222.607,134.646 215.549,129.714 200.009,129.161L71.272,129.161C57.059,129.161 38.848,146.051 49.883,166.921L114.541,289.266C121.473,301.917 126.785,305.404 138.914,305.761L278.277,305.761C293.112,305.473 302.229,286.167 294.671,272.14L231.312,152.786Z" style="fill:url(#_Linear6);"/>
        </g>
        <g transform="matrix(-0.226505,-0.392318,0.36201,-0.209007,326.385,355.795)">
            <path d="M231.312,152.786C222.607,134.646 215.549,129.714 200.009,129.161L71.272,129.161C57.059,129.161 38.848,146.051 49.883,166.921L114.541,289.266C121.473,301.917 126.785,305.404 138.914,305.761L278.277,305.761C293.112,305.473 302.229,286.167 294.671,272.14L231.312,152.786Z" style="fill:url(#_Linear7);"/>
        </g>
        <g transform="matrix(-0.226505,-0.392318,0.36201,-0.209007,316.385,338.474)">
            <path d="M231.312,152.786C222.607,134.646 215.549,129.714 200.009,129.161L71.272,129.161C57.059,129.161 38.848,146.051 49.883,166.921L114.541,289.266C121.473,301.917 126.785,305.404 138.914,305.761L278.277,305.761C293.112,305.473 302.229,286.167 294.671,272.14L231.312,152.786Z" style="fill:url(#_Linear8);"/>
        </g>
        <g transform="matrix(-0.226505,0.392318,-0.36201,-0.209007,489.407,176.721)">
            <path d="M231.312,152.786C222.607,134.646 215.549,129.714 200.009,129.161L71.272,129.161C57.059,129.161 38.848,146.051 49.883,166.921L114.541,289.266C121.473,301.917 126.785,305.404 138.914,305.761L278.277,305.761C293.112,305.473 302.229,286.167 294.671,272.14L231.312,152.786Z" style="fill:url(#_Linear9);"/>
        </g>
    </g>
    <defs>
        <linearGradient id="_Linear1" x1="0" y1="0" x2="1" y2="0" gradientUnits="userSpaceOnUse" gradientTransform="matrix(250.894,0,0,176.6,46.4905,217.461)"><stop offset="0" style="stop-color:rgb(52,140,246);stop-opacity:0.3"/><stop offset="0.42" style="stop-color:rgb(52,140,246);stop-opacity:0.43"/><stop offset="0.76" style="stop-color:rgb(52,140,246);stop-opacity:0.93"/><stop offset="1" style="stop-color:rgb(52,140,246);stop-opacity:1"/></linearGradient>
        <linearGradient id="_Linear2" x1="0" y1="0" x2="1" y2="0" gradientUnits="userSpaceOnUse" gradientTransform="matrix(250.894,0,0,176.6,46.4905,217.461)"><stop offset="0" style="stop-color:rgb(52,140,246);stop-opacity:0.3"/><stop offset="0.42" style="stop-color:rgb(52,140,246);stop-opacity:0.43"/><stop offset="0.76" style="stop-color:rgb(52,140,246);stop-opacity:0.93"/><stop offset="1" style="stop-color:rgb(52,140,246);stop-opacity:1"/></linearGradient>
        <linearGradient id="_Linear3" x1="0" y1="0" x2="1" y2="0" gradientUnits="userSpaceOnUse" gradientTransform="matrix(250.894,0,0,176.6,46.4905,217.461)"><stop offset="0" style="stop-color:rgb(52,140,246);stop-opacity:0.3"/><stop offset="0.42" style="stop-color:rgb(52,140,246);stop-opacity:0.43"/><stop offset="0.76" style="stop-color:rgb(52,140,246);stop-opacity:0.93"/><stop offset="1" style="stop-color:rgb(52,140,246);stop-opacity:1"/></linearGradient>
        <linearGradient id="_Linear4" x1="0" y1="0" x2="1" y2="0" gradientUnits="userSpaceOnUse" gradientTransform="matrix(250.894,0,0,176.6,46.4905,217.461)"><stop offset="0" style="stop-color:rgb(52,140,246);stop-opacity:0.3"/><stop offset="0.42" style="stop-color:rgb(52,140,246);stop-opacity:0.43"/><stop offset="0.76" style="stop-color:rgb(52,140,246);stop-opacity:0.93"/><stop offset="1" style="stop-color:rgb(52,140,246);stop-opacity:1"/></linearGradient>
        <linearGradient id="_Linear5" x1="0" y1="0" x2="1" y2="0" gradientUnits="userSpaceOnUse" gradientTransform="matrix(250.894,0,0,176.6,46.4905,217.461)"><stop offset="0" style="stop-color:rgb(52,140,246);stop-opacity:0.3"/><stop offset="0.42" style="stop-color:rgb(52,140,246);stop-opacity:0.43"/><stop offset="0.76" style="stop-color:rgb(52,140,246);stop-opacity:0.93"/><stop offset="1" style="stop-color:rgb(52,140,246);stop-opacity:1"/></linearGradient>
        <linearGradient id="_Linear6" x1="0" y1="0" x2="1" y2="0" gradientUnits="userSpaceOnUse" gradientTransform="matrix(250.894,0,0,176.6,46.4905,217.461)"><stop offset="0" style="stop-color:rgb(52,140,246);stop-opacity:0.3"/><stop offset="0.42" style="stop-color:rgb(52,140,246);stop-opacity:0.43"/><stop offset="0.76" style="stop-color:rgb(52,140,246);stop-opacity:0.93"/><stop offset="1" style="stop-color:rgb(52,140,246);stop-opacity:1"/></linearGradient>
        <linearGradient id="_Linear7" x1="0" y1="0" x2="1" y2="0" gradientUnits="userSpaceOnUse" gradientTransform="matrix(250.894,0,0,176.6,46.4905,217.461)"><stop offset="0" style="stop-color:rgb(52,140,246);stop-opacity:0.3"/><stop offset="0.42" style="stop-color:rgb(52,140,246);stop-opacity:0.43"/><stop offset="0.76" style="stop-color:rgb(52,140,246);stop-opacity:0.93"/><stop offset="1" style="stop-color:rgb(52,140,246);stop-opacity:1"/></linearGradient>
        <linearGradient id="_Linear8" x1="0" y1="0" x2="1" y2="0" gradientUnits="userSpaceOnUse" gradientTransform="matrix(250.894,0,0,176.6,46.4905,217.461)"><stop offset="0" style="stop-color:rgb(52,140,246);stop-opacity:0.3"/><stop offset="0.42" style="stop-color:rgb(52,140,246);stop-opacity:0.43"/><stop offset="0.76" style="stop-color:rgb(52,140,246);stop-opacity:0.93"/><stop offset="1" style="stop-color:rgb(52,140,246);stop-opacity:1"/></linearGradient>
        <linearGradient id="_Linear9" x1="0" y1="0" x2="1" y2="0" gradientUnits="userSpaceOnUse" gradientTransform="matrix(250.894,0,0,176.6,46.4905,217.461)"><stop offset="0" style="stop-color:rgb(52,140,246);stop-opacity:0.3"/><stop offset="0.42" style="stop-color:rgb(52,140,246);stop-opacity:0.43"/><stop offset="0.76" style="stop-color:rgb(52,140,246);stop-opacity:0.93"/><stop offset="1" style="stop-color:rgb(52,140,246);stop-opacity:1"/></linearGradient>
    </defs>
</svg>
